<svg xmlns="http://www.w3.org/2000/svg" width="86" height="86" fill="none"><g fill="#000" clip-path="url(#a)"><path d="M60.316 48.413a21.68 21.68 0 004.434-13.204c0-5.902-2.315-11.434-6.517-15.578a21.72 21.72 0 00-15.673-6.294c-5.72.08-11.109 2.376-15.174 6.462-4.064 4.086-6.332 9.487-6.384 15.207-.044 4.904 1.498 9.552 4.46 13.442 4.81 6.315 7.458 14.05 7.458 21.781v8.46a6.813 6.813 0 006.805 6.804h6.33a6.813 6.813 0 006.804-6.804v-8.46c0-7.816 2.56-15.36 7.457-21.816zm-32.622-1.664a18.887 18.887 0 01-3.887-11.717C23.9 24.76 32.33 16.286 42.599 16.14c5.152-.07 10.002 1.876 13.665 5.488a18.933 18.933 0 015.681 13.58c0 4.196-1.336 8.176-3.864 11.51-5.159 6.802-7.937 14.739-8.05 22.983H35.72c-.117-8.164-2.957-16.296-8.027-22.953zm8.03 30.99v-1.136l14.331 1.642v.444c0 .233-.024.461-.063.684l-14.267-1.635zm0-3.959v-1.273h14.331v2.915l-14.33-1.642zm4.001 8.91a4.002 4.002 0 01-3.502-2.072l12.072 1.383c-.64.434-1.41.688-2.24.688h-6.33z"/><path d="M29.01 37.318a14.35 14.35 0 01-.155-2.24 1.402 1.402 0 10-2.804-.026c-.008.899.054 1.8.185 2.68a1.403 1.403 0 102.774-.414zm8.252 21.299a1.402 1.402 0 001.332-1.84A44.489 44.489 0 0031.71 43.69a14.168 14.168 0 01-1.312-2.071 1.402 1.402 0 10-2.491 1.288c.447.864.976 1.7 1.572 2.482a41.69 41.69 0 016.451 12.264c.194.59.742.965 1.332.965zM57.61 40.01a1.402 1.402 0 00-1.842.733 14.02 14.02 0 01-1.71 2.925 1.402 1.402 0 002.236 1.694 16.85 16.85 0 002.05-3.51 1.402 1.402 0 00-.734-1.842zM42.876 21.187c7.731 0 14.021 6.29 14.021 14.022 0 .44-.02.882-.06 1.316a1.402 1.402 0 102.793.257c.048-.52.072-1.048.072-1.573 0-9.278-7.548-16.826-16.826-16.826a1.402 1.402 0 000 2.804zm0-10.271c.774 0 1.402-.628 1.402-1.403V1.661a1.402 1.402 0 00-2.804 0v7.852c0 .775.628 1.403 1.402 1.403zm-14.186 2.77a1.402 1.402 0 102.428-1.402l-3.924-6.798a1.402 1.402 0 10-2.429 1.402l3.925 6.798zm44.153 37.449l-6.798-3.924a1.402 1.402 0 10-1.402 2.428l6.798 3.925a1.402 1.402 0 101.402-2.429zM12.909 19.771l6.798 3.925a1.402 1.402 0 101.402-2.429l-6.798-3.924a1.402 1.402 0 10-1.402 2.428zM76.668 34.05h-7.852a1.402 1.402 0 000 2.805h7.852a1.402 1.402 0 000-2.804zm-58.33 1.403c0-.774-.628-1.402-1.402-1.402H9.083a1.402 1.402 0 100 2.804h7.853c.775 0 1.402-.627 1.402-1.402zm47.007-11.569c.238 0 .48-.06.7-.188l6.798-3.925a1.402 1.402 0 10-1.402-2.429l-6.798 3.925a1.402 1.402 0 00.702 2.617zM19.707 47.21l-6.798 3.925a1.402 1.402 0 001.402 2.429l6.798-3.925a1.402 1.402 0 10-1.402-2.428zm35.44-33.01a1.402 1.402 0 001.916-.513l3.924-6.799a1.402 1.402 0 00-2.429-1.402l-3.924 6.798a1.402 1.402 0 00.513 1.916z"/></g><defs><clipPath id="a"><path fill="#fff" d="M.258.258h85.235v85.235H.258z"/></clipPath></defs></svg>