<svg xmlns="http://www.w3.org/2000/svg" width="60" height="60" fill="none"><g fill="#000" clip-path="url(#a)"><path d="M42.252 34.054a14.931 14.931 0 0 0 3.054-9.095c0-4.065-1.594-7.875-4.488-10.729a14.96 14.96 0 0 0-10.795-4.336c-3.94.056-7.651 1.637-10.451 4.451-2.8 2.815-4.361 6.535-4.397 10.475a14.922 14.922 0 0 0 3.072 9.258c3.312 4.35 5.136 9.677 5.136 15.002v5.826a4.692 4.692 0 0 0 4.687 4.687h4.36a4.692 4.692 0 0 0 4.687-4.687V49.08c0-5.383 1.763-10.58 5.135-15.026Zm-22.468-1.147a13.008 13.008 0 0 1-2.677-8.07c.064-7.074 5.87-12.911 12.943-13.011a13.05 13.05 0 0 1 9.412 3.78 13.04 13.04 0 0 1 3.913 9.353c0 2.89-.92 5.631-2.662 7.927-3.553 4.686-5.466 10.152-5.545 15.83h-9.856c-.08-5.623-2.037-11.223-5.528-15.809Zm5.531 21.345v-.782l9.87 1.13v.306c0 .161-.016.318-.043.471l-9.827-1.125Zm0-2.727v-.876h9.87v2.007l-9.87-1.13Zm2.755 6.137a2.757 2.757 0 0 1-2.412-1.427l8.315.953c-.44.299-.972.473-1.543.473h-4.36Z"/><path d="M20.69 26.412a9.873 9.873 0 0 1-.107-1.543.966.966 0 0 0-1.931-.018c-.006.62.037 1.24.127 1.846a.966.966 0 1 0 1.91-.285ZM26.374 41.082a.967.967 0 0 0 .917-1.267A30.64 30.64 0 0 0 22.55 30.8a9.754 9.754 0 0 1-.904-1.427.966.966 0 0 0-1.716.887c.308.596.672 1.17 1.083 1.71a28.715 28.715 0 0 1 4.443 8.447.966.966 0 0 0 .918.664ZM40.388 28.266a.966.966 0 0 0-1.269.505 9.662 9.662 0 0 1-1.177 2.014.966.966 0 0 0 1.54 1.168c.569-.75 1.044-1.564 1.411-2.418a.966.966 0 0 0-.505-1.269ZM30.24 15.302c5.325 0 9.658 4.332 9.658 9.657 0 .303-.014.608-.042.907a.966.966 0 0 0 1.924.177c.033-.358.05-.722.05-1.084 0-6.39-5.2-11.589-11.59-11.589a.966.966 0 1 0 0 1.932ZM30.24 8.227a.966.966 0 0 0 .966-.966V1.853a.966.966 0 0 0-1.932 0V7.26c0 .534.433.966.966.966ZM20.47 10.135a.965.965 0 1 0 1.672-.965L19.44 4.487a.966.966 0 1 0-1.673.966l2.703 4.682ZM50.88 35.928l-4.682-2.702a.965.965 0 1 0-.965 1.672l4.682 2.703a.966.966 0 1 0 .966-1.673ZM9.6 14.327l4.682 2.703a.965.965 0 1 0 .966-1.673l-4.682-2.703a.966.966 0 1 0-.966 1.673ZM53.516 24.162h-5.41a.966.966 0 1 0 0 1.931h5.41a.966.966 0 1 0 0-1.931ZM13.34 25.128a.966.966 0 0 0-.966-.966H6.965a.966.966 0 1 0 0 1.931h5.409a.966.966 0 0 0 .966-.965ZM45.716 17.16c.164 0 .33-.043.482-.13l4.682-2.703a.966.966 0 1 0-.966-1.673l-4.682 2.703a.966.966 0 0 0 .484 1.802ZM14.283 33.225 9.6 35.928a.966.966 0 0 0 .966 1.673l4.682-2.703a.966.966 0 0 0-.965-1.673ZM38.692 10.489a.965.965 0 0 0 1.32-.354l2.702-4.682a.966.966 0 0 0-1.672-.966L38.338 9.17a.966.966 0 0 0 .353 1.319Z"/></g><defs><clipPath id="a"><path fill="#fff" d="M.887.887h58.706v58.706H.887z"/></clipPath></defs></svg>